# xmcd
#
# Track frame offsets: 
#        150
#        30299
#        66072
#        85301
#        106002
#        137350
#        155389
#        174816
#        212709
#        242241
#        260662
#        272179
#        302638
#
# Disc length: 4468 seconds
#
# Revision: 0
# Processed by: cddbd v1.5.1PL2 Copyright (c) Steve Scherf et al.
# Submitted via: ExactAudioCopy v0.95b3
#
DISCID=a311720d
DTITLE=just one - love music. [nebula nbip-5023]
DYEAR=2005
DGENRE=nu soul/broken beats
TTITLE0=01 just one - all the way
TTITLE1=02 just one - no stress
TTITLE2=03 just one - regeneration
TTITLE3=04 just one - a new space
TTITLE4=05 just one - lo que puede ser
TTITLE5=06 just one - love's the thing
TTITLE6=07 just one - in between (the abstract and the delusion)
TTITLE7=08 just one - questions
TTITLE8=09 just one - love2love
TTITLE9=10 just one - state of emergency
TTITLE10=11 just one - life is up to you
TTITLE11=12 just one - lo qu puede ser (just one rumbero mix)
TTITLE12=13 just one - love2love (phill asher restless re rub)
EXTD=
EXTT0=
EXTT1=
EXTT2=
EXTT3=
EXTT4=
EXTT5=
EXTT6=
EXTT7=
EXTT8=
EXTT9=
EXTT10=
EXTT11=
EXTT12=
PLAYORDER=
